<mxfile host="app.diagrams.net" agent="Mozilla/5.0 (Windows NT 10.0; Win64; x64) AppleWebKit/537.36 (KHTML, like Gecko) Chrome/129.0.0.0 Safari/537.36" version="24.7.17">
  <diagram name="Página-1" id="TyU7_g9hYUvMKGKNzgn7">
    <mxGraphModel dx="989" dy="537" grid="1" gridSize="10" guides="1" tooltips="1" connect="1" arrows="1" fold="1" page="1" pageScale="1" pageWidth="827" pageHeight="1169" math="0" shadow="0">
      <root>
        <mxCell id="0" />
        <mxCell id="1" parent="0" />
        <mxCell id="9q4bbz4ngkfGdagmP01F-7" style="edgeStyle=orthogonalEdgeStyle;rounded=0;orthogonalLoop=1;jettySize=auto;html=1;entryX=0;entryY=0.5;entryDx=0;entryDy=0;" edge="1" parent="1" source="9q4bbz4ngkfGdagmP01F-1" target="9q4bbz4ngkfGdagmP01F-2">
          <mxGeometry relative="1" as="geometry" />
        </mxCell>
        <mxCell id="9q4bbz4ngkfGdagmP01F-8" style="edgeStyle=orthogonalEdgeStyle;rounded=0;orthogonalLoop=1;jettySize=auto;html=1;entryX=0;entryY=0.5;entryDx=0;entryDy=0;" edge="1" parent="1" source="9q4bbz4ngkfGdagmP01F-1" target="9q4bbz4ngkfGdagmP01F-3">
          <mxGeometry relative="1" as="geometry" />
        </mxCell>
        <mxCell id="9q4bbz4ngkfGdagmP01F-1" value="API" style="rounded=0;whiteSpace=wrap;html=1;" vertex="1" parent="1">
          <mxGeometry x="40" y="80" width="120" height="60" as="geometry" />
        </mxCell>
        <mxCell id="9q4bbz4ngkfGdagmP01F-9" style="edgeStyle=orthogonalEdgeStyle;rounded=0;orthogonalLoop=1;jettySize=auto;html=1;entryX=0;entryY=0.5;entryDx=0;entryDy=0;" edge="1" parent="1" source="9q4bbz4ngkfGdagmP01F-2" target="9q4bbz4ngkfGdagmP01F-4">
          <mxGeometry relative="1" as="geometry" />
        </mxCell>
        <mxCell id="9q4bbz4ngkfGdagmP01F-12" style="edgeStyle=orthogonalEdgeStyle;rounded=0;orthogonalLoop=1;jettySize=auto;html=1;entryX=0.5;entryY=0;entryDx=0;entryDy=0;" edge="1" parent="1" source="9q4bbz4ngkfGdagmP01F-2" target="9q4bbz4ngkfGdagmP01F-3">
          <mxGeometry relative="1" as="geometry" />
        </mxCell>
        <mxCell id="9q4bbz4ngkfGdagmP01F-13" style="edgeStyle=orthogonalEdgeStyle;rounded=0;orthogonalLoop=1;jettySize=auto;html=1;entryX=0;entryY=0.5;entryDx=0;entryDy=0;" edge="1" parent="1" source="9q4bbz4ngkfGdagmP01F-2" target="9q4bbz4ngkfGdagmP01F-5">
          <mxGeometry relative="1" as="geometry" />
        </mxCell>
        <mxCell id="9q4bbz4ngkfGdagmP01F-2" value="Application" style="rounded=0;whiteSpace=wrap;html=1;" vertex="1" parent="1">
          <mxGeometry x="220" y="140" width="120" height="60" as="geometry" />
        </mxCell>
        <mxCell id="9q4bbz4ngkfGdagmP01F-3" value="Communication" style="rounded=0;whiteSpace=wrap;html=1;" vertex="1" parent="1">
          <mxGeometry x="220" y="230" width="120" height="60" as="geometry" />
        </mxCell>
        <mxCell id="9q4bbz4ngkfGdagmP01F-4" value="Domain" style="rounded=0;whiteSpace=wrap;html=1;" vertex="1" parent="1">
          <mxGeometry x="420" y="140" width="120" height="60" as="geometry" />
        </mxCell>
        <mxCell id="9q4bbz4ngkfGdagmP01F-5" value="Exception" style="rounded=0;whiteSpace=wrap;html=1;" vertex="1" parent="1">
          <mxGeometry x="420" y="230" width="120" height="60" as="geometry" />
        </mxCell>
        <mxCell id="9q4bbz4ngkfGdagmP01F-10" style="edgeStyle=orthogonalEdgeStyle;rounded=0;orthogonalLoop=1;jettySize=auto;html=1;entryX=1;entryY=0.5;entryDx=0;entryDy=0;" edge="1" parent="1" source="9q4bbz4ngkfGdagmP01F-6" target="9q4bbz4ngkfGdagmP01F-4">
          <mxGeometry relative="1" as="geometry" />
        </mxCell>
        <mxCell id="9q4bbz4ngkfGdagmP01F-6" value="Infrastructure" style="rounded=0;whiteSpace=wrap;html=1;" vertex="1" parent="1">
          <mxGeometry x="600" y="80" width="120" height="60" as="geometry" />
        </mxCell>
        <mxCell id="9q4bbz4ngkfGdagmP01F-14" value="&lt;b&gt;API&lt;/b&gt;: responsável pelos end-points, middlewares, filters&amp;nbsp; e registros de dependências da aplicação&lt;div&gt;&lt;b&gt;&lt;br&gt;&lt;/b&gt;&lt;/div&gt;&lt;div&gt;&lt;b&gt;Application&lt;/b&gt;: responsável pelas regras de negócios (UseCases)&lt;/div&gt;&lt;div&gt;&lt;b&gt;&lt;br&gt;&lt;/b&gt;&lt;/div&gt;&lt;div&gt;&lt;b&gt;Communication&lt;/b&gt;: responsável pelas classes de request e response que serão utilizados na API e serializados em JSON&lt;/div&gt;&lt;div&gt;&lt;b&gt;&lt;br&gt;&lt;/b&gt;&lt;/div&gt;&lt;div&gt;&lt;b&gt;Domain&lt;/b&gt;: responsável pelas entidades espelho das tabelas do banco&lt;/div&gt;&lt;div&gt;&lt;b&gt;&lt;br&gt;&lt;/b&gt;&lt;/div&gt;&lt;div&gt;&lt;b&gt;Exception&lt;/b&gt;: responsável pelas mensagens de erro da API e também das classes de exception personalizadas&lt;/div&gt;&lt;div&gt;&lt;b&gt;&lt;br&gt;&lt;/b&gt;&lt;/div&gt;&lt;div&gt;&lt;b&gt;Infrastructure&lt;/b&gt;: responsável pela comunicação da API com outros serviços como o banco de dados por exemplo. Aqui ficam as implementações das interfaces repository definidas na camada de Application.&lt;/div&gt;" style="text;html=1;align=left;verticalAlign=top;whiteSpace=wrap;rounded=0;" vertex="1" parent="1">
          <mxGeometry x="40" y="320" width="680" height="190" as="geometry" />
        </mxCell>
        <mxCell id="9q4bbz4ngkfGdagmP01F-15" value="Estrutura da API" style="text;html=1;align=center;verticalAlign=middle;whiteSpace=wrap;rounded=0;fontStyle=1;fillColor=#f5f5f5;fontColor=#333333;strokeColor=#666666;fontSize=18;" vertex="1" parent="1">
          <mxGeometry x="40" y="30" width="680" height="30" as="geometry" />
        </mxCell>
        <mxCell id="9q4bbz4ngkfGdagmP01F-16" value="Estrutura de pastas da WEB" style="text;html=1;align=center;verticalAlign=middle;whiteSpace=wrap;rounded=0;fontStyle=1;fillColor=#f5f5f5;fontColor=#333333;strokeColor=#666666;fontSize=18;" vertex="1" parent="1">
          <mxGeometry x="40" y="520" width="680" height="30" as="geometry" />
        </mxCell>
        <mxCell id="9q4bbz4ngkfGdagmP01F-25" style="edgeStyle=orthogonalEdgeStyle;rounded=0;orthogonalLoop=1;jettySize=auto;html=1;entryX=0;entryY=0.5;entryDx=0;entryDy=0;" edge="1" parent="1" source="9q4bbz4ngkfGdagmP01F-17" target="9q4bbz4ngkfGdagmP01F-19">
          <mxGeometry relative="1" as="geometry" />
        </mxCell>
        <mxCell id="9q4bbz4ngkfGdagmP01F-26" style="edgeStyle=orthogonalEdgeStyle;rounded=0;orthogonalLoop=1;jettySize=auto;html=1;entryX=1;entryY=0.5;entryDx=0;entryDy=0;" edge="1" parent="1" source="9q4bbz4ngkfGdagmP01F-17" target="9q4bbz4ngkfGdagmP01F-21">
          <mxGeometry relative="1" as="geometry" />
        </mxCell>
        <mxCell id="9q4bbz4ngkfGdagmP01F-29" style="edgeStyle=orthogonalEdgeStyle;rounded=0;orthogonalLoop=1;jettySize=auto;html=1;entryX=0;entryY=0.5;entryDx=0;entryDy=0;" edge="1" parent="1" source="9q4bbz4ngkfGdagmP01F-17" target="9q4bbz4ngkfGdagmP01F-22">
          <mxGeometry relative="1" as="geometry" />
        </mxCell>
        <mxCell id="9q4bbz4ngkfGdagmP01F-17" value="app" style="rounded=0;whiteSpace=wrap;html=1;" vertex="1" parent="1">
          <mxGeometry x="240" y="600" width="120" height="60" as="geometry" />
        </mxCell>
        <mxCell id="9q4bbz4ngkfGdagmP01F-27" style="edgeStyle=orthogonalEdgeStyle;rounded=0;orthogonalLoop=1;jettySize=auto;html=1;entryX=1;entryY=0.5;entryDx=0;entryDy=0;" edge="1" parent="1" source="9q4bbz4ngkfGdagmP01F-18" target="9q4bbz4ngkfGdagmP01F-20">
          <mxGeometry relative="1" as="geometry" />
        </mxCell>
        <mxCell id="9q4bbz4ngkfGdagmP01F-18" value="actions" style="rounded=0;whiteSpace=wrap;html=1;" vertex="1" parent="1">
          <mxGeometry x="600" y="600" width="120" height="60" as="geometry" />
        </mxCell>
        <mxCell id="9q4bbz4ngkfGdagmP01F-24" style="edgeStyle=orthogonalEdgeStyle;rounded=0;orthogonalLoop=1;jettySize=auto;html=1;entryX=0;entryY=0.5;entryDx=0;entryDy=0;" edge="1" parent="1" source="9q4bbz4ngkfGdagmP01F-19" target="9q4bbz4ngkfGdagmP01F-18">
          <mxGeometry relative="1" as="geometry" />
        </mxCell>
        <mxCell id="9q4bbz4ngkfGdagmP01F-19" value="components" style="rounded=0;whiteSpace=wrap;html=1;" vertex="1" parent="1">
          <mxGeometry x="430" y="600" width="120" height="60" as="geometry" />
        </mxCell>
        <mxCell id="9q4bbz4ngkfGdagmP01F-20" value="data" style="rounded=0;whiteSpace=wrap;html=1;" vertex="1" parent="1">
          <mxGeometry x="510" y="720" width="120" height="60" as="geometry" />
        </mxCell>
        <mxCell id="9q4bbz4ngkfGdagmP01F-21" value="hooks" style="rounded=0;whiteSpace=wrap;html=1;" vertex="1" parent="1">
          <mxGeometry x="40" y="600" width="120" height="60" as="geometry" />
        </mxCell>
        <mxCell id="9q4bbz4ngkfGdagmP01F-28" style="edgeStyle=orthogonalEdgeStyle;rounded=0;orthogonalLoop=1;jettySize=auto;html=1;entryX=0;entryY=0.5;entryDx=0;entryDy=0;" edge="1" parent="1" source="9q4bbz4ngkfGdagmP01F-22" target="9q4bbz4ngkfGdagmP01F-20">
          <mxGeometry relative="1" as="geometry" />
        </mxCell>
        <mxCell id="9q4bbz4ngkfGdagmP01F-22" value="services" style="rounded=0;whiteSpace=wrap;html=1;" vertex="1" parent="1">
          <mxGeometry x="340" y="720" width="120" height="60" as="geometry" />
        </mxCell>
        <mxCell id="9q4bbz4ngkfGdagmP01F-30" value="&lt;b&gt;app&lt;/b&gt;: responsável pelas pastas que é o mapeamento de rotas do nextjs e também por arquivos de layout, páginas&lt;span style=&quot;background-color: initial;&quot;&gt;...&lt;/span&gt;&lt;div&gt;&lt;div&gt;&lt;b&gt;&lt;br&gt;&lt;/b&gt;&lt;/div&gt;&lt;div&gt;&lt;b&gt;hooks&lt;/b&gt;: responsável pelo hook do toast (mensagens para o usuário) durante as ações realizadas&lt;/div&gt;&lt;div&gt;&lt;b&gt;&lt;br&gt;&lt;/b&gt;&lt;/div&gt;&lt;div&gt;&lt;b&gt;components&lt;/b&gt;: responsável pelos componentes que compõem as páginas&lt;/div&gt;&lt;div&gt;&lt;b&gt;&lt;br&gt;&lt;/b&gt;&lt;/div&gt;&lt;div&gt;&lt;b&gt;actions&lt;/b&gt;: responsável por métodos server-side que são utilizados pelos components client-side&lt;/div&gt;&lt;div&gt;&lt;b&gt;&lt;br&gt;&lt;/b&gt;&lt;/div&gt;&lt;div&gt;&lt;b&gt;services&lt;/b&gt;: responsável pela interação com a API&lt;/div&gt;&lt;div&gt;&lt;b&gt;&lt;br&gt;&lt;/b&gt;&lt;/div&gt;&lt;div&gt;&lt;b&gt;data&lt;/b&gt;: responsável pela classe de comunicação com a API e os types necessários&lt;/div&gt;&lt;div&gt;&lt;br&gt;&lt;/div&gt;&lt;/div&gt;" style="text;html=1;align=left;verticalAlign=top;whiteSpace=wrap;rounded=0;" vertex="1" parent="1">
          <mxGeometry x="40" y="800" width="680" height="190" as="geometry" />
        </mxCell>
      </root>
    </mxGraphModel>
  </diagram>
</mxfile>
